<?xml version="1.0" encoding="iso-8859-1"?>
<!-- Generator: Adobe Illustrator 16.0.0, SVG Export Plug-In . SVG Version: 6.00 Build 0)  -->
<!DOCTYPE svg PUBLIC "-//W3C//DTD SVG 1.1//EN" "http://www.w3.org/Graphics/SVG/1.1/DTD/svg11.dtd">
<svg version="1.1" id="Capa_1" xmlns="http://www.w3.org/2000/svg" xmlns:xlink="http://www.w3.org/1999/xlink" x="0px" y="0px"
	 width="45.988px" height="45.988px" viewBox="0 0 45.988 45.988" style="enable-background:new 0 0 45.988 45.988;"
	 xml:space="preserve">
<g>
	<g>
		<path d="M19.433,15.863c1.485,0,2.722-1.046,2.963-2.509h1.147c0.241,1.462,1.478,2.51,2.963,2.51
			c1.658,0,3.006-1.347,3.006-3.004c0-1.657-1.348-3.004-3.006-3.004c-1.485,0-2.722,1.113-2.963,2.498h-1.147
			c-0.241-1.385-1.478-2.498-2.963-2.498c-1.658,0-3.006,1.35-3.006,3.008S17.775,15.863,19.433,15.863z M26.505,10.869
			c1.1,0,1.996,0.895,1.996,1.996s-0.896,1.996-1.996,1.996c-1.102,0-1.996-0.895-1.996-1.996S25.405,10.869,26.505,10.869z
			 M19.433,10.869c1.1,0,1.996,0.895,1.996,1.996s-0.896,1.996-1.996,1.996c-1.101,0-1.996-0.895-1.996-1.996
			S18.332,10.869,19.433,10.869z"/>
		<path d="M10.64,14.816c0.194,2.362,1.388,3.417,2.678,3.683c1.812,4.428,5.397,8.08,9.641,8.08c4.243,0,7.827-3.649,9.639-8.075
			c1.3-0.258,2.505-1.312,2.701-3.687c0.164-1.984-0.368-2.975-1.136-3.462c3.039-4.147-1.374-6.472-1.605-6.589
			C30.586,0.476,26.685,0,22.959,0c-3.923,0-7.643,0.719-9.56,4.765c-0.002-0.001-0.005-0.003-0.008-0.005
			c0,0-4.736,2.337-1.616,6.595C11.007,11.841,10.476,12.832,10.64,14.816z M14.922,6.285c1.432-3.856,4.514-4.266,8.036-4.266
			c3.646,0,6.672,0.4,8.062,4.254c-1.815,2.98-0.16,7.798,0.42,9.272c-1.125,4.614-4.488,9.012-8.482,9.012
			c-3.985,0-7.342-4.379-8.475-8.981C15.051,14.143,16.742,9.287,14.922,6.285z"/>
		<path d="M25.019,16.432h-4.1c-1.1,0-1.992,0.877-1.992,1.978c0,0.573,0.465,1.024,1.039,1.024h6.005
			c0.573,0,1.039-0.451,1.039-1.024C27.01,17.309,26.118,16.432,25.019,16.432z"/>
		<path d="M32.487,26.236l-1.164-0.293l-8.353,18.346l-8.333-18.346l-1.148,0.293c-4.917,1.23-8.352,5.649-8.352,10.721v6.656
			c0,1.312,1.031,2.375,2.342,2.375h31.007c1.311,0,2.363-1.063,2.363-2.375v-6.656C40.851,31.886,37.405,27.467,32.487,26.236z
			 M29.567,38.984c0.106-1.31,1.231-2.436,2.619-2.436c1.387,0,2.512,1.126,2.618,2.436H29.567z"/>
		<path d="M26.353,28.201l-2.058,0.598c-0.032,0.008-0.063,0.016-0.095,0.021c-0.333-0.293-0.765-0.488-1.24-0.488
			s-0.907,0.195-1.24,0.488c-0.032-0.006-0.064-0.014-0.095-0.021l-2.05-0.598c-0.614-0.176-1.197,0.287-1.197,0.926v2.332
			c0,0.641,0.584,1.102,1.2,0.924l2.141-0.624c0.333,0.296,0.765,0.479,1.242,0.494c0.478-0.015,0.911-0.198,1.244-0.494
			l2.146,0.624c0.615,0.178,1.209-0.283,1.209-0.924v-2.331C27.56,28.488,26.967,28.027,26.353,28.201z"/>
	</g>
</g>
<g>
</g>
<g>
</g>
<g>
</g>
<g>
</g>
<g>
</g>
<g>
</g>
<g>
</g>
<g>
</g>
<g>
</g>
<g>
</g>
<g>
</g>
<g>
</g>
<g>
</g>
<g>
</g>
<g>
</g>
</svg>
