<?xml version="1.0" encoding="iso-8859-1"?>
<!-- Generator: Adobe Illustrator 16.0.0, SVG Export Plug-In . SVG Version: 6.00 Build 0)  -->
<!DOCTYPE svg PUBLIC "-//W3C//DTD SVG 1.1//EN" "http://www.w3.org/Graphics/SVG/1.1/DTD/svg11.dtd">
<svg version="1.1" id="Capa_1" xmlns="http://www.w3.org/2000/svg" xmlns:xlink="http://www.w3.org/1999/xlink" x="0px" y="0px"
	 width="45.826px" height="45.826px" viewBox="0 0 45.826 45.826" style="enable-background:new 0 0 45.826 45.826;"
	 xml:space="preserve">
<g>
	<g>
		<path d="M9.932,14.963c0,1.492,1.099,2.703,2.453,2.703c0.019,0,0.037-0.001,0.055-0.002c-0.107,0.431-0.146,0.968-0.091,1.641
			c0.165,1.997,1.168,2.897,2.259,3.129c1.542,3.779,4.602,6.898,8.224,6.898c3.613,0,6.667-3.104,8.213-6.871
			c1.146-0.181,2.234-1.068,2.406-3.157c0.057-0.672,0.018-1.21-0.091-1.641c0.019,0.001,0.036,0.002,0.056,0.002
			c1.354,0,2.453-1.211,2.453-2.703c0-1.089-0.586-2.021-1.431-2.449c0.567-0.273,0.968-0.897,0.968-1.625
			c0-0.713-0.386-1.325-0.937-1.605c0.299-0.485,0.474-1.07,0.474-1.701c0-1.676-1.232-3.035-2.755-3.035
			c-0.034,0-0.065,0.01-0.103,0.011c-0.354-1.622-1.67-2.831-3.252-2.831c-0.912,0-1.739,0.406-2.346,1.059
			C26.035,1.177,24.689,0,23.081,0c-0.062,0-0.301,0-0.361,0c-1.61,0-2.957,1.177-3.409,2.786c-0.605-0.653-1.432-1.059-2.345-1.059
			c-1.582,0-2.898,1.209-3.253,2.831c-0.034-0.001-0.066-0.011-0.102-0.011c-1.521,0-2.755,1.359-2.755,3.035
			c0,0.631,0.175,1.216,0.474,1.701c-0.551,0.281-0.937,0.892-0.937,1.605c0,0.728,0.399,1.351,0.969,1.625
			C10.518,12.941,9.932,13.874,9.932,14.963z M19.23,8.843c0.563,0.633,1.963,1.083,3.6,1.083c1.652,0,3.063-0.458,3.614-1.101
			c2.371,0.729,3.929,2.772,3.929,8.379c0,4.698-3.364,10.371-7.542,10.371s-7.543-5.673-7.543-10.371
			C15.288,11.647,16.893,9.588,19.23,8.843z"/>
		<path d="M31.004,29.021l-2.207-0.551c-0.01,0.008-0.022,0.018-0.03,0.025c-1.788,1.583-3.842,2.42-5.933,2.42
			c-2.093,0-4.143-0.836-5.933-2.418l-2.091,0.523c-4.184,1.049-7.118,4.809-7.118,9.123v5.664c0,1.117,0.9,2.018,2.016,2.018h5.36
			h15.276h5.748c1.113,0,2.043-0.9,2.043-2.018v-5.664C38.136,33.829,35.188,30.07,31.004,29.021z M23.759,35.051
			c0,0.474-0.385,0.857-0.858,0.857c-0.475,0-0.86-0.384-0.86-0.857c0-0.476,0.386-0.859,0.86-0.859
			C23.374,34.191,23.759,34.576,23.759,35.051z M23.759,39.204c0,0.476-0.385,0.858-0.858,0.858c-0.475,0-0.86-0.383-0.86-0.858
			c0-0.474,0.386-0.858,0.86-0.858C23.374,38.346,23.759,38.73,23.759,39.204z M9.688,43.809v-5.664
			c0-3.328,2.224-6.226,5.399-7.131v12.801L9.688,43.809z M36.086,43.84l-5.754-0.007V30.907l0.187,0.045
			c3.313,0.83,5.632,3.788,5.632,7.192v5.656C36.145,43.811,36.117,43.84,36.086,43.84z"/>
	</g>
</g>
<g>
</g>
<g>
</g>
<g>
</g>
<g>
</g>
<g>
</g>
<g>
</g>
<g>
</g>
<g>
</g>
<g>
</g>
<g>
</g>
<g>
</g>
<g>
</g>
<g>
</g>
<g>
</g>
<g>
</g>
</svg>
