<?xml version="1.0" encoding="iso-8859-1"?>
<!-- Generator: Adobe Illustrator 16.0.0, SVG Export Plug-In . SVG Version: 6.00 Build 0)  -->
<!DOCTYPE svg PUBLIC "-//W3C//DTD SVG 1.1//EN" "http://www.w3.org/Graphics/SVG/1.1/DTD/svg11.dtd">
<svg version="1.1" id="Capa_1" xmlns="http://www.w3.org/2000/svg" xmlns:xlink="http://www.w3.org/1999/xlink" x="0px" y="0px"
	 width="46.07px" height="46.069px" viewBox="0 0 46.07 46.069" style="enable-background:new 0 0 46.07 46.069;"
	 xml:space="preserve">
<g>
	<g>
		<path d="M32.259,26.299l-0.777-0.191l-6.889,11.178c-0.359,0.583-0.947,0.934-1.553,0.934c-0.606,0-1.193-0.351-1.553-0.934
			L14.6,26.107l-0.784,0.191c-4.925,1.232-8.398,5.658-8.398,10.736v6.667c0,1.313,1.099,2.367,2.412,2.367H38.25
			c1.313,0,2.401-1.054,2.401-2.367v-6.667C40.652,31.957,37.185,27.531,32.259,26.299z M34.945,40.891
			c0,0.565-0.436,1.021-1.001,1.021h-4.168c-0.565,0-1.034-0.456-1.034-1.021v-0.024c0-0.565,0.468-1,1.034-1h4.168
			c0.565,0,1.001,0.437,1.001,1V40.891z"/>
		<path d="M13.264,18.528c1.814,4.453,5.418,8.125,9.685,8.125c0.005,0,0.136,0,0.141,0c4.267,0,7.87-3.672,9.685-8.125
			c1.265-0.291,2.418-1.349,2.609-3.669c0.18-2.182-0.479-3.162-1.369-3.595C33.66,1.397,28.573,0,23.09,0c-0.023,0-0.047,0-0.071,0
			c-0.023,0-0.047,0-0.07,0c-5.483,0-10.571,1.397-10.925,11.264c-0.89,0.433-1.549,1.413-1.369,3.595
			C10.846,17.178,11.999,18.238,13.264,18.528z M23.028,24.594c-0.002,0-0.005,0-0.008,0c-0.002,0-0.005,0-0.008,0
			c-1.459-0.006-2.637-1.125-2.637-2.471c0-1.348,1.183-2.469,2.646-2.469c1.463,0,2.646,1.122,2.646,2.469
			C25.665,23.469,24.487,24.588,23.028,24.594z M23.017,4.259h0.002h0.002c8.413-2.109,8.932,5.899,8.886,9.075
			c-0.05,3.404-1.843,6.984-4.196,9.2c0.014-0.135,0.021-0.271,0.021-0.41c0-2.487-2.11-4.537-4.713-4.537s-4.713,2.05-4.713,4.537
			c0,0.139,0.008,0.275,0.021,0.41c-2.353-2.216-4.146-5.796-4.196-9.2C14.084,10.158,14.605,2.15,23.017,4.259z"/>
		<path d="M26.418,27.922l-2.058,0.596c-0.032,0.009-0.062,0.017-0.096,0.021c-0.332-0.292-0.765-0.486-1.239-0.486
			c-0.475,0-0.907,0.193-1.24,0.486c-0.032-0.005-0.064-0.013-0.095-0.021l-2.05-0.596c-0.614-0.177-1.197,0.285-1.197,0.924v2.332
			c0,0.642,0.584,1.103,1.2,0.924l2.141-0.623c0.333,0.296,0.765,0.479,1.242,0.494c0.479-0.015,0.91-0.198,1.244-0.494l2.146,0.623
			c0.615,0.179,1.208-0.282,1.208-0.924v-2.332C27.625,28.207,27.034,27.745,26.418,27.922z"/>
	</g>
</g>
<g>
</g>
<g>
</g>
<g>
</g>
<g>
</g>
<g>
</g>
<g>
</g>
<g>
</g>
<g>
</g>
<g>
</g>
<g>
</g>
<g>
</g>
<g>
</g>
<g>
</g>
<g>
</g>
<g>
</g>
</svg>
