<?xml version="1.0" encoding="iso-8859-1"?>
<!-- Generator: Adobe Illustrator 19.0.0, SVG Export Plug-In . SVG Version: 6.00 Build 0)  -->
<svg version="1.1" id="Capa_1" xmlns="http://www.w3.org/2000/svg" xmlns:xlink="http://www.w3.org/1999/xlink" x="0px" y="0px"
	 viewBox="0 0 229.432 229.432" style="enable-background:new 0 0 229.432 229.432;" xml:space="preserve">
<path d="M178.716,74.321V8.465l-49,14.511V0h-30v22.976l-49-14.511v65.856l49-14.51v30.412c-9,2.603-18.127,8.024-24.617,16.046
	c-8.588,10.615-13.383,25.428-13.383,41.71v39.576L51.669,210h40.5c1.15,10.903,10.523,19.432,21.88,19.432
	s20.73-8.529,21.88-19.432h42.368l-12.024-26h-0.558v-36.021c0-16.282-4.68-31.095-13.268-41.71
	c-6.08-7.515-13.732-12.733-22.732-15.504V59.811L178.716,74.321z"/>
<g>
</g>
<g>
</g>
<g>
</g>
<g>
</g>
<g>
</g>
<g>
</g>
<g>
</g>
<g>
</g>
<g>
</g>
<g>
</g>
<g>
</g>
<g>
</g>
<g>
</g>
<g>
</g>
<g>
</g>
</svg>
