<?xml version="1.0" encoding="iso-8859-1"?>
<!-- Generator: Adobe Illustrator 19.0.0, SVG Export Plug-In . SVG Version: 6.00 Build 0)  -->
<svg version="1.1" id="Capa_1" xmlns="http://www.w3.org/2000/svg" xmlns:xlink="http://www.w3.org/1999/xlink" x="0px" y="0px"
	 viewBox="0 0 230 230" style="enable-background:new 0 0 230 230;" xml:space="preserve">
<path d="M214,144v-30h-14.135C196.711,83.799,178,58.262,151,45.874V36.5C151,16.374,134.626,0,114.5,0S78,16.374,78,36.5v9.838
	C52,58.897,33.916,84.18,30.801,114H16v30h14v52H20v34h190v-34h-10v-52H214z M108,36.5c0-3.584,2.916-6.5,6.5-6.5s6.5,2.916,6.5,6.5
	v1.579c-2-0.139-3.981-0.236-6-0.236c-2.359,0-4,0.122-7,0.312V36.5z M82,161.71c0-18.269,14.731-33.079,33-33.079
	s33,14.81,33,33.079V195H82V161.71z"/>
<g>
</g>
<g>
</g>
<g>
</g>
<g>
</g>
<g>
</g>
<g>
</g>
<g>
</g>
<g>
</g>
<g>
</g>
<g>
</g>
<g>
</g>
<g>
</g>
<g>
</g>
<g>
</g>
<g>
</g>
</svg>
