<?xml version="1.0" encoding="iso-8859-1"?>
<!-- Generator: Adobe Illustrator 19.0.0, SVG Export Plug-In . SVG Version: 6.00 Build 0)  -->
<svg version="1.1" id="Capa_1" xmlns="http://www.w3.org/2000/svg" xmlns:xlink="http://www.w3.org/1999/xlink" x="0px" y="0px"
	 viewBox="0 0 237.08 237.08" style="enable-background:new 0 0 237.08 237.08;" xml:space="preserve">
<path d="M209.774,181.968c-4.965-3.342-10.098-6.797-15.168-10.693c-11.363-8.714-12.927-17.488-14.907-28.598
	c-0.466-2.618-0.947-5.29-1.565-8.047l29.581-29.581L102.726,0.059L0,102.786l104.989,104.989l29.601-29.601
	c2.76,0.619,5.434,1.1,8.054,1.567c11.114,1.98,19.892,3.544,28.611,14.898c3.889,5.066,7.337,10.196,10.672,15.157
	c9.819,14.607,18.301,27.224,31.601,27.225c0.001,0,0.001,0,0.001,0c3.153,0,6.439-0.759,9.771-2.258
	c3.847-1.734,6.321-3.869,6.778-4.279l0.393-0.396c0.764-0.854,2.708-3.22,4.288-6.723
	C243.247,204.495,226.988,193.552,209.774,181.968z M161.591,80.9l-12.075,12.075L137.441,80.9l12.075-12.075L161.591,80.9z
	 M102.725,115.615L114.8,127.69l-11.32,11.32l-12.075-12.075L102.725,115.615z M80.839,116.37l-12.075-12.075l11.32-11.32
	l12.075,12.075L80.839,116.37z M104.235,92.974L92.16,80.9l12.075-12.075L116.31,80.9L104.235,92.974z M126.875,91.465
	l12.075,12.075l-12.075,12.075L114.8,103.54L126.875,91.465z M138.95,58.259l-12.075,12.075L114.8,58.259l12.075-12.075
	L138.95,58.259z M104.235,23.543l11.32,11.32L103.48,46.939l-11.32-11.32L104.235,23.543z M81.594,46.184l11.32,11.32L80.839,69.579
	l-11.32-11.32L81.594,46.184z M57.444,70.334l11.32,11.32l-11.32,11.32l-11.32-11.32L57.444,70.334z M22.729,105.049l12.075-12.075
	l11.32,11.32L34.049,116.37L22.729,105.049z M45.369,127.69l12.075-12.075l12.075,12.075l-12.075,12.075L45.369,127.69z
	 M68.01,150.331l12.075-12.075l12.075,12.075l-12.075,12.075L68.01,150.331z M102.725,185.046l-11.32-11.32l12.075-12.075
	l11.32,11.32L102.725,185.046z M126.121,161.651l-11.32-11.32l11.32-11.32l11.32,11.32L126.121,161.651z M149.516,138.256
	l-11.32-11.32l12.075-12.075l11.32,11.32L149.516,138.256z M160.836,104.295l12.075-12.075l11.32,11.32l-12.075,12.075
	L160.836,104.295z"/>
<g>
</g>
<g>
</g>
<g>
</g>
<g>
</g>
<g>
</g>
<g>
</g>
<g>
</g>
<g>
</g>
<g>
</g>
<g>
</g>
<g>
</g>
<g>
</g>
<g>
</g>
<g>
</g>
<g>
</g>
</svg>
