<?xml version="1.0" encoding="iso-8859-1"?>
<!-- Generator: Adobe Illustrator 19.0.0, SVG Export Plug-In . SVG Version: 6.00 Build 0)  -->
<svg version="1.1" id="Capa_1" xmlns="http://www.w3.org/2000/svg" xmlns:xlink="http://www.w3.org/1999/xlink" x="0px" y="0px"
	 viewBox="0 0 205.093 205.093" style="enable-background:new 0 0 205.093 205.093;" xml:space="preserve">
<path d="M195.633,9.463C189.532,3.36,181.418,0,172.789,0s-16.742,3.36-22.844,9.463c-2.338,2.338-4.241,4.949-5.711,7.731
	c-5.709-4.584-12.75-7.08-20.177-7.08c-8.629,0-16.742,3.36-22.844,9.463c-12.597,12.596-12.597,33.093,0,45.688
	c3.034,3.035,6.567,5.39,10.412,6.992L98.445,85.439L60.496,47.49L0.012,205.093l63.85-24.567L49.007,165.67l10.984-10.983
	l19.85,19.85l29.325-11.079l-28.973-28.973l11.805-11.805l33.932,33.932l31.707-11.979l-37.979-37.98l13.198-13.198
	c1.574,3.794,3.896,7.348,6.976,10.428c6.102,6.103,14.215,9.463,22.844,9.463c8.63,0,16.743-3.36,22.844-9.463
	c11.74-11.739,12.533-30.338,2.39-43.01c2.809-1.492,5.411-3.408,7.724-5.721C208.23,42.556,208.23,22.059,195.633,9.463z"/>
<g>
</g>
<g>
</g>
<g>
</g>
<g>
</g>
<g>
</g>
<g>
</g>
<g>
</g>
<g>
</g>
<g>
</g>
<g>
</g>
<g>
</g>
<g>
</g>
<g>
</g>
<g>
</g>
<g>
</g>
</svg>
