<?xml version="1.0" encoding="iso-8859-1"?>
<!-- Generator: Adobe Illustrator 19.0.0, SVG Export Plug-In . SVG Version: 6.00 Build 0)  -->
<svg version="1.1" id="Capa_1" xmlns="http://www.w3.org/2000/svg" xmlns:xlink="http://www.w3.org/1999/xlink" x="0px" y="0px"
	 viewBox="0 0 228.417 228.417" style="enable-background:new 0 0 228.417 228.417;" xml:space="preserve">
<path d="M220.708,52V0h-213v52h55v61.888c-8,5.125-14.167,14.499-14.167,25.195c0,16.175,13.243,29.334,29.416,29.334
	c16.175,0,29.209-13.159,29.209-29.334c0-10.696-5.459-20.07-14.459-25.195V52h44v121.888c-8,5.125-14.167,14.499-14.167,25.195
	c0,16.175,13.243,29.334,29.416,29.334c16.175,0,29.209-13.159,29.209-29.334c0-10.696-5.459-20.07-14.459-25.195V52H220.708z"/>
<g>
</g>
<g>
</g>
<g>
</g>
<g>
</g>
<g>
</g>
<g>
</g>
<g>
</g>
<g>
</g>
<g>
</g>
<g>
</g>
<g>
</g>
<g>
</g>
<g>
</g>
<g>
</g>
<g>
</g>
</svg>
