<?xml version="1.0" encoding="iso-8859-1"?>
<!-- Generator: Adobe Illustrator 19.0.0, SVG Export Plug-In . SVG Version: 6.00 Build 0)  -->
<svg version="1.1" id="Capa_1" xmlns="http://www.w3.org/2000/svg" xmlns:xlink="http://www.w3.org/1999/xlink" x="0px" y="0px"
	 viewBox="0 0 229 229" style="enable-background:new 0 0 229 229;" xml:space="preserve">
<g>
	<path d="M0,164h12.616l27.851,59h149.745l27.851-59H229v-18H0V164z M160,162h15v43h-15V162z M125,162h15v43h-15V162z M89,162h15v43
		H89V162z M54,162h14v43H54V162z"/>
	<path d="M218.063,108l-27.851-59H168V6H61v43H40.467l-27.851,59H0v18h229v-18H218.063z M91,36h47v13H91V36z M68,110H54V67h14V110z
		 M104,110H89V67h15V110z M140,110h-15V67h15V110z M175,110h-15V67h15V110z"/>
</g>
<g>
</g>
<g>
</g>
<g>
</g>
<g>
</g>
<g>
</g>
<g>
</g>
<g>
</g>
<g>
</g>
<g>
</g>
<g>
</g>
<g>
</g>
<g>
</g>
<g>
</g>
<g>
</g>
<g>
</g>
</svg>
