<?xml version="1.0" encoding="iso-8859-1"?>
<!-- Generator: Adobe Illustrator 19.0.0, SVG Export Plug-In . SVG Version: 6.00 Build 0)  -->
<svg version="1.1" id="Capa_1" xmlns="http://www.w3.org/2000/svg" xmlns:xlink="http://www.w3.org/1999/xlink" x="0px" y="0px"
	 viewBox="0 0 215 215" style="enable-background:new 0 0 215 215;" xml:space="preserve">
<g>
	<circle cx="122.782" cy="119.196" r="5.228"/>
	<path d="M0,4v55h10v152h195V59h10V4H0z M175,181H40v-19h135V181z M68.985,114.816l14.143-14.143l8.757,8.757
		c5.348-4.478,12.147-8.41,19.553-8.41c17.216,0,31.172,21.233,31.172,21.233s-13.956,21.233-31.172,21.233
		c-7.406,0-14.205-3.931-19.553-8.41l-8.757,8.757l-14.143-14.143l7.438-7.438L68.985,114.816z M175,83H40V59h135V83z"/>
</g>
<g>
</g>
<g>
</g>
<g>
</g>
<g>
</g>
<g>
</g>
<g>
</g>
<g>
</g>
<g>
</g>
<g>
</g>
<g>
</g>
<g>
</g>
<g>
</g>
<g>
</g>
<g>
</g>
<g>
</g>
</svg>
