<?xml version="1.0" encoding="iso-8859-1"?>
<!-- Generator: Adobe Illustrator 19.0.0, SVG Export Plug-In . SVG Version: 6.00 Build 0)  -->
<svg version="1.1" id="Capa_1" xmlns="http://www.w3.org/2000/svg" xmlns:xlink="http://www.w3.org/1999/xlink" x="0px" y="0px"
	 viewBox="0 0 260.922 260.922" style="enable-background:new 0 0 260.922 260.922;" xml:space="preserve">
<path d="M178.19,31.607l-34.159,34.159l-12.888-12.888L22.228,161.794l7.231,7.231L0,198.484l21.213,21.213l29.459-29.459l8.04,8.04
	l11.819-11.819c12.42,25.352,38.484,42.855,68.566,42.855c39.648,0,72.318-30.397,75.959-69.109l45.866-45.866L178.19,31.607z
	 M139.097,186.314c-18.396,0-33.308-14.913-33.308-33.308s14.913-33.308,33.308-33.308s33.308,14.913,33.308,33.308
	S157.493,186.314,139.097,186.314z M209.429,123.406c-7.652-18.113-22.108-32.668-40.142-40.469l8.904-8.904l40.306,40.306
	L209.429,123.406z"/>
<g>
</g>
<g>
</g>
<g>
</g>
<g>
</g>
<g>
</g>
<g>
</g>
<g>
</g>
<g>
</g>
<g>
</g>
<g>
</g>
<g>
</g>
<g>
</g>
<g>
</g>
<g>
</g>
<g>
</g>
</svg>
