<?xml version="1.0" encoding="iso-8859-1"?>
<!-- Generator: Adobe Illustrator 19.0.0, SVG Export Plug-In . SVG Version: 6.00 Build 0)  -->
<svg version="1.1" id="Capa_1" xmlns="http://www.w3.org/2000/svg" xmlns:xlink="http://www.w3.org/1999/xlink" x="0px" y="0px"
	 viewBox="0 0 224 224" style="enable-background:new 0 0 224 224;" xml:space="preserve">
<g>
	<polygon points="156.27,33 68.053,33 45.001,66 179.669,66 	"/>
	<rect x="71" width="82" height="19"/>
	<path d="M44,80v144h136V80H44z M95,158h-6.963l0.178-22h-0.133l-8.143,22h-5.31l-7.921-22h-0.133l0.177,22H59v-31h11.382l7.124,20
		h0.177l6.814-20H95V158z M109,158h-7v-31h7V158z M135,158h-19v-31h7v25h12V158z M158.399,158l-11.638-14H146v14h-7v-31h7v13h0.806
		l11.195-13h9.47l-13.496,14.261L168.268,158H158.399z"/>
</g>
<g>
</g>
<g>
</g>
<g>
</g>
<g>
</g>
<g>
</g>
<g>
</g>
<g>
</g>
<g>
</g>
<g>
</g>
<g>
</g>
<g>
</g>
<g>
</g>
<g>
</g>
<g>
</g>
<g>
</g>
</svg>
