<?xml version="1.0" encoding="iso-8859-1"?>
<!-- Generator: Adobe Illustrator 19.0.0, SVG Export Plug-In . SVG Version: 6.00 Build 0)  -->
<svg version="1.1" id="Capa_1" xmlns="http://www.w3.org/2000/svg" xmlns:xlink="http://www.w3.org/1999/xlink" x="0px" y="0px"
	 viewBox="0 0 247.605 247.605" style="enable-background:new 0 0 247.605 247.605;" xml:space="preserve">
<path d="M240.606,211.169c-1.065-1.644-14.112-21.582-33.59-41.35c5.808-5.96,9.396-14.093,9.396-23.052
	c0-18.227-14.828-33.056-33.055-33.056c-13.3,0-24.949,7.9-30.189,19.25c-2.306-0.764-4.132-1.417-7.132-1.944V97.171
	c3,0.693,5.892,1.067,8.904,1.067c20.067,0,36.477-16.326,36.477-36.394c0-20.068-16.285-36.395-36.352-36.395
	c-8.469,0-16.243,2.916-22.434,7.785c-6.19-4.869-13.976-7.785-22.444-7.785c-20.067,0-36.388,16.326-36.388,36.395
	c0,20.067,16.162,36.394,36.23,36.394c2.105,0,4.008-0.19,6.008-0.534v33.028c-34,5.531-57.585,28.698-67.232,65.72
	c-1.054-0.043-1.756-0.09-2.221-0.141c-7.708-0.898-14.335-5.244-18.258-11.924c-6.834-11.638-2.905-26.667,8.734-33.502
	l-12.65-21.557c-23.525,13.815-31.42,44.194-17.605,67.718c7.927,13.499,21.401,22.281,36.964,24.097l203.838,1.011L240.606,211.169
	z M155.106,55.451c3.525,0,6.394,2.868,6.394,6.395c0,3.525-2.868,6.394-6.394,6.394s-6.394-2.868-6.394-6.394
	C148.712,58.319,151.58,55.451,155.106,55.451z M116.574,62.155h-0.539v1.332c0,2.731-3.048,4.752-6.006,4.752
	c-3.525,0-6.31-2.868-6.31-6.394c0-3.526,2.91-6.395,6.435-6.395s6.414,2.868,6.414,6.395
	C116.569,61.95,116.579,62.051,116.574,62.155z M191.667,194.521c-4.687,0-8.486-3.799-8.486-8.486s3.799-8.486,8.486-8.486
	c4.687,0,8.486,3.799,8.486,8.486S196.354,194.521,191.667,194.521z"/>
<g>
</g>
<g>
</g>
<g>
</g>
<g>
</g>
<g>
</g>
<g>
</g>
<g>
</g>
<g>
</g>
<g>
</g>
<g>
</g>
<g>
</g>
<g>
</g>
<g>
</g>
<g>
</g>
<g>
</g>
</svg>
