<?xml version="1.0" encoding="iso-8859-1"?>
<!-- Generator: Adobe Illustrator 19.0.0, SVG Export Plug-In . SVG Version: 6.00 Build 0)  -->
<svg version="1.1" id="Capa_1" xmlns="http://www.w3.org/2000/svg" xmlns:xlink="http://www.w3.org/1999/xlink" x="0px" y="0px"
	 viewBox="0 0 224 224" style="enable-background:new 0 0 224 224;" xml:space="preserve">
<path d="M165.051,183l9.375-183H49.574l9.376,183h33.717v10h-14v31h65v-31h-14v-10H165.051z M112,32.936
	c11.634,0,21.065,9.431,21.065,21.065c0,0.97-0.089,1.918-0.215,2.853c11.054,6.945,18.408,19.24,18.408,33.258
	c0,3.066-0.363,6.046-1.028,8.91L94.117,42.908C97.833,36.929,104.442,32.936,112,32.936z M112,129.37
	c-21.681,0-39.258-17.576-39.258-39.258c0-7.481,2.11-14.461,5.744-20.409l53.939,53.939C126.474,127.275,119.482,129.37,112,129.37
	z"/>
<g>
</g>
<g>
</g>
<g>
</g>
<g>
</g>
<g>
</g>
<g>
</g>
<g>
</g>
<g>
</g>
<g>
</g>
<g>
</g>
<g>
</g>
<g>
</g>
<g>
</g>
<g>
</g>
<g>
</g>
</svg>
