<?xml version="1.0" encoding="iso-8859-1"?>
<!-- Generator: Adobe Illustrator 19.0.0, SVG Export Plug-In . SVG Version: 6.00 Build 0)  -->
<svg version="1.1" id="Capa_1" xmlns="http://www.w3.org/2000/svg" xmlns:xlink="http://www.w3.org/1999/xlink" x="0px" y="0px"
	 viewBox="0 0 259 259" style="enable-background:new 0 0 259 259;" xml:space="preserve">
<path d="M247.107,198.283l-21.349-78.369c1.47-4.271,2.279-8.846,2.279-13.61c0-18.351-11.851-33.975-28.297-39.652
	c-1.052-22.198-19.439-39.935-41.893-39.935c-10.87,0-20.787,4.158-28.246,10.965c-7.459-6.807-17.376-10.965-28.246-10.965
	c-22.454,0-40.841,17.737-41.893,39.935c-16.446,5.677-28.297,21.301-28.297,39.652c0,4.757,0.807,9.327,2.273,13.593
	l-21.345,78.385H0v34h259v-34H247.107z M61.165,106.304c0-6.586,5.358-11.943,11.944-11.943s11.944,5.357,11.944,11.943
	c0,2.522-0.791,4.86-2.13,6.79l-19.617,0.017C61.96,111.177,61.165,108.833,61.165,106.304z M119.763,113.063
	c-1.326-1.924-2.106-4.251-2.106-6.759c0-6.586,5.358-11.943,11.944-11.943s11.944,5.357,11.944,11.943
	c0,2.51-0.782,4.839-2.111,6.764L119.763,113.063z M176.294,113.115c-1.348-1.934-2.145-4.279-2.145-6.81
	c0-6.586,5.358-11.943,11.944-11.943s11.944,5.357,11.944,11.943c0,2.542-0.805,4.896-2.164,6.835L176.294,113.115z M157.847,56.717
	c6.255,0,11.393,4.836,11.895,10.963c-4.399,1.869-8.414,4.469-11.895,7.645c-3.481-3.176-7.496-5.776-11.895-7.645
	C146.455,61.553,151.593,56.717,157.847,56.717z M101.355,56.717c6.255,0,11.393,4.836,11.895,10.963
	c-4.399,1.869-8.414,4.469-11.895,7.645c-3.481-3.176-7.496-5.776-11.895-7.645C89.962,61.553,95.1,56.717,101.355,56.717z"/>
<g>
</g>
<g>
</g>
<g>
</g>
<g>
</g>
<g>
</g>
<g>
</g>
<g>
</g>
<g>
</g>
<g>
</g>
<g>
</g>
<g>
</g>
<g>
</g>
<g>
</g>
<g>
</g>
<g>
</g>
</svg>
