<?xml version="1.0" encoding="iso-8859-1"?>
<!-- Generator: Adobe Illustrator 19.0.0, SVG Export Plug-In . SVG Version: 6.00 Build 0)  -->
<svg version="1.1" id="Capa_1" xmlns="http://www.w3.org/2000/svg" xmlns:xlink="http://www.w3.org/1999/xlink" x="0px" y="0px"
	 viewBox="0 0 222 222" style="enable-background:new 0 0 222 222;" xml:space="preserve">
<g>
	<polygon points="129,60 129,32 152,32 152,0 86.284,0 44,12.5 44,32 93,32 93,60 44,60 44,105 149,105 149,185 44,185 44,222 
		178,222 178,60 	"/>
	<path d="M102.309,160.013c2.722,2.174,6.163,3.483,9.909,3.483c8.774,0,15.913-7.139,15.913-15.913s-7.139-15.913-15.913-15.913
		c-3.746,0-7.188,1.309-9.909,3.483c-3.852-5.281-10.069-8.733-17.091-8.733c-11.669,0-21.163,9.494-21.163,21.163
		s9.494,21.163,21.163,21.163C92.241,168.746,98.457,165.294,102.309,160.013z"/>
</g>
<g>
</g>
<g>
</g>
<g>
</g>
<g>
</g>
<g>
</g>
<g>
</g>
<g>
</g>
<g>
</g>
<g>
</g>
<g>
</g>
<g>
</g>
<g>
</g>
<g>
</g>
<g>
</g>
<g>
</g>
</svg>
