<?xml version="1.0" encoding="iso-8859-1"?>
<!-- Generator: Adobe Illustrator 19.0.0, SVG Export Plug-In . SVG Version: 6.00 Build 0)  -->
<svg version="1.1" id="Capa_1" xmlns="http://www.w3.org/2000/svg" xmlns:xlink="http://www.w3.org/1999/xlink" x="0px" y="0px"
	 viewBox="0 0 218.333 218.333" style="enable-background:new 0 0 218.333 218.333;" xml:space="preserve">
<g>
	<path d="M202.02,178.117l-8.571-138.36c8.237-2.349,14.291-9.926,14.291-18.907c0-10.848-8.825-19.673-19.674-19.673
		c-9.399,0-17.268,6.628-19.207,15.453H49.215C46.92,8.312,39.306,2.177,30.267,2.177c-10.849,0-19.674,8.825-19.674,19.673
		c0,8.958,6.024,16.522,14.23,18.891l-8.511,137.376C7.063,179.719,0,187.781,0,197.482c0,10.849,8.825,19.674,19.673,19.674
		c9.425,0,17.314-6.664,19.225-15.525h140.536c1.911,8.862,9.8,15.525,19.225,15.525c10.849,0,19.674-8.825,19.674-19.674
		C218.333,187.781,211.27,179.719,202.02,178.117z M109.166,163.166c-29.823,0-54-24.177-54-54s24.177-54,54-54s54,24.177,54,54
		S138.99,163.166,109.166,163.166z"/>
	<path d="M127.769,102.217c0.36-1.467,0.573-2.991,0.573-4.567c0-10.573-8.603-19.176-19.176-19.176S89.99,87.077,89.99,97.65
		c0,1.576,0.212,3.101,0.573,4.567c-8.1,2.243-14.073,9.661-14.073,18.465c0,10.573,8.603,19.176,19.176,19.176
		c5.261,0,10.032-2.132,13.5-5.575c3.468,3.443,8.239,5.575,13.5,5.575c10.573,0,19.176-8.603,19.176-19.176
		C141.842,111.878,135.869,104.46,127.769,102.217z"/>
</g>
<g>
</g>
<g>
</g>
<g>
</g>
<g>
</g>
<g>
</g>
<g>
</g>
<g>
</g>
<g>
</g>
<g>
</g>
<g>
</g>
<g>
</g>
<g>
</g>
<g>
</g>
<g>
</g>
<g>
</g>
</svg>
